<svg xmlns="http://www.w3.org/2000/svg" fill="none" viewBox="0 0 32 32">
  <g clip-path="url(#testops-icon-clip)">
    <path
      fill="url(#testops-icon-a)"
      fill-rule="evenodd"
      d="M32.0001 15.9999V28.0327C32.0001 30.2218 30.2256 31.9999 28.0329 31.9999C26.4365 31.9999 25.1056 30.869 24.7965 29.3672C24.7529 29.149 24.7274 28.9236 24.7274 28.6945L24.7274 15.9999C24.7274 15.4945 24.6838 14.9963 24.6001 14.509C24.2983 12.7454 23.462 11.1199 22.1711 9.82902C20.5238 8.18175 18.3311 7.27266 16.0001 7.27266C13.6692 7.27266 11.4765 8.18175 9.82924 9.82902C8.53833 11.1199 7.70196 12.7454 7.40015 14.509C7.9856 9.62539 11.4256 5.62175 16.0001 4.20357C17.1565 3.84721 18.382 3.65448 19.6547 3.65448C26.4474 3.65448 31.9601 9.14175 32.0001 15.9272C32.0001 15.9381 32.0001 15.9527 32.0001 15.9636C32.0001 15.9745 32.0001 15.989 32.0001 15.9999Z"
      clip-rule="evenodd"
    />
    <path
      fill="url(#testops-icon-b)"
      d="M32 15.9273C31.96 9.14182 26.4473 3.65455 19.6545 3.65455C18.3818 3.65455 17.1564 3.84727 16 4.20364C11.4255 5.62182 7.98545 9.62545 7.4 14.5091C7.31636 14.9964 7.27273 15.4945 7.27273 16C7.27273 16.5055 7.31636 17.0036 7.4 17.4909C7.70182 19.2545 8.53818 20.88 9.82909 22.1709C11.4764 23.8182 13.6691 24.7273 16 24.7273C18.3309 24.7273 20.5236 23.8182 22.1709 22.1709C23.4618 20.88 24.2982 19.2545 24.6 17.4909C24.0145 22.3745 20.5745 26.3782 16 27.7964C14.8436 28.1527 13.6182 28.3455 12.3455 28.3455C5.52727 28.3455 0 22.8182 0 16C0 13.84 0.425454 11.7455 1.25818 9.77091C2.06545 7.86545 3.21818 6.15273 4.68364 4.68727C6.15273 3.21818 7.86182 2.06545 9.76727 1.26182C11.7455 0.425455 13.84 0 16 0C18.16 0 20.2545 0.425454 22.2291 1.25818C24.1345 2.06545 25.8473 3.21818 27.3127 4.68364C28.7818 6.15273 29.9345 7.86182 30.7382 9.76727C31.5673 11.7236 31.9891 13.7927 32 15.9273Z"
    />
    <path
      fill="url(#testops-icon-c)"
      d="M24.7964 29.3672C23.9891 29.9018 23.1309 30.3599 22.2291 30.7418C20.2545 31.5745 18.16 31.9999 16 31.9999C13.84 31.9999 11.7455 31.5745 9.77091 30.7418C7.86545 29.9345 6.15273 28.7818 4.68727 27.3163C3.21818 25.8472 2.06545 24.1381 1.26182 22.2327C0.425455 20.2545 0 18.1599 0 15.9999C0 22.8181 5.52727 28.3454 12.3455 28.3454C13.6182 28.3454 14.8436 28.1527 16 27.7963C20.5745 26.3781 24.0145 22.3745 24.6 17.4908C24.6836 17.0036 24.7273 16.5054 24.7273 15.9999V28.6945C24.7273 28.9236 24.7527 29.149 24.7964 29.3672Z"
    />
  </g>
  <defs>
    <linearGradient id="testops-icon-a" x1="14.315" y1="4.904" x2="34.596" y2="38.846" gradientUnits="userSpaceOnUse">
      <stop stop-color="#0B9363" />
      <stop offset="0.218" stop-color="#16B67B" />
      <stop offset="0.5304" stop-color="#36CE94" />
      <stop offset="0.8019" stop-color="#6CE5B4" />
      <stop offset="1" stop-color="#6CE5B4" />
    </linearGradient>
    <linearGradient id="testops-icon-b" x1="11.5" y1="1" x2="18.896" y2="27.296" gradientUnits="userSpaceOnUse">
      <stop stop-color="#6CE5B4" />
      <stop offset="0.139" stop-color="#36CE94" />
      <stop offset="0.491" stop-color="#36CE94" />
      <stop offset="0.826" stop-color="#6CE5B4" />
      <stop offset="1" stop-color="#A6F2CF" />
    </linearGradient>
    <linearGradient id="testops-icon-c" x1="1.983" y1="25.951" x2="25.789" y2="19.923" gradientUnits="userSpaceOnUse">
      <stop stop-color="#6CE5B4" />
      <stop offset="0.28" stop-color="#6CE5B4" />
      <stop offset="0.491" stop-color="#36CE94" />
      <stop offset="0.68" stop-color="#16B67B" />
      <stop offset="1" stop-color="#0B9363" />
    </linearGradient>
    <clipPath id="testops-icon-clip">
      <rect width="32" height="32" fill="#fff" />
    </clipPath>
  </defs>
</svg>
